<svg xmlns="http://www.w3.org/2000/svg" viewBox="0 0 383 756">
  <g transform="translate(0.000000,756.000000) scale(0.100000,-0.100000)" fill="#2563EB">
    <path d="M3371 7368 c-85 -84 -158 -155 -161 -158 -3 -3 -123 -120 -265 -260 -241 -237 -1027 -1006 -1189 -1164 -39 -38 -150 -146 -246 -240 -97 -94 -364 -355 -595 -581 -647 -631 -713 -699 -763 -788 -279 -491 -21 -1073 538 -1213 41 -10 141 -13 393 -14 284 0 337 -2 337 -14 0 -12 -68 -194 -105 -281 -21 -51 -122 -306 -149 -378 -14 -37 -33 -84 -42 -105 -25 -57 -31 -72 -54 -137 -12 -33 -32 -85 -45 -115 -28 -66 -89 -222 -121 -307 -12 -34 -29 -77 -37 -95 -8 -18 -34 -82 -57 -142 -23 -60 -48 -123 -56 -140 -7 -17 -45 -114 -85 -216 -39 -102 -82 -209 -95 -238 -13 -29 -24 -56 -24 -60 0 -7 -75 -198 -150 -382 -21 -52 -51 -129 -66 -170 -15 -41 -31 -80 -36 -87 -5 -7 -8 -20 -6 -30 2 -13 81 59 288 262 320 314 641 629 1025 1004 143 140 375 368 515 505 141 138 422 413 625 611 944 920 970 949 1017 1176 7 32 16 59 20 59 4 0 8 54 8 120 0 66 -4 120 -9 120 -5 0 -11 17 -15 38 -40 252 -245 505 -486 600 -134 53 -154 55 -527 60 -259 3 -353 7 -353 15 0 11 76 210 101 267 7 14 15 34 19 45 5 11 33 84 64 161 31 78 56 145 56 148 0 3 9 28 21 54 24 54 23 51 79 192 22 58 54 140 70 182 15 42 35 91 43 110 8 18 30 71 47 118 18 47 39 101 47 120 8 19 19 44 23 55 4 11 28 72 53 135 25 63 57 145 71 183 14 37 33 84 42 105 20 46 27 63 55 137 12 33 33 84 46 113 12 29 23 57 23 62 0 6 9 29 19 53 34 77 91 219 91 228 0 5 9 31 21 57 33 74 36 81 75 182 20 52 45 116 55 143 10 26 16 47 12 47 -4 0 -76 -69 -162 -152z m-1594 -2540 c-13 -29 -34 -82 -47 -118 -13 -36 -34 -90 -47 -120 -14 -30 -34 -80 -45 -110 -22 -62 -28 -76 -57 -142 -12 -26 -21 -52 -21 -56 0 -5 -27 -74 -60 -155 -33 -80 -60 -153 -60 -161 0 -14 77 -16 792 -16 l792 0 32 -22 c69 -48 92 -134 55 -206 -11 -20 -149 -163 -307 -317 -158 -154 -395 -386 -527 -515 -234 -231 -257 -251 -257 -232 0 13 75 205 119 304 12 26 21 52 21 57 0 9 33 92 71 178 11 24 19 46 19 50 0 3 30 80 66 170 36 89 64 170 60 178 -5 13 -100 15 -789 15 -859 0 -822 -3 -866 59 -47 66 -32 173 32 227 18 15 221 212 452 439 231 227 458 450 505 495 93 91 109 91 67 -2z"/>
  </g>
</svg>
